# xmcd
#
# Track frame offsets:
# 150
# 15301
# 38800
# 56983
# 77094
# 102813
# 123713
# 141953
# 172807
#
# Disc length: 2777 seconds
#
# Revision: 0
# Processed by: cddbd v1.5PL3 Copyright (c) Steve Scherf et al.
# Submitted via: Axialis_AX_CDPlayer 2.6
#
DISCID=700ad709
DTITLE=Tab Benoit - I Got Loaded
DYEAR=1900
DGENRE=
TTITLE0=Voodoo On The Bayou
TTITLE1=Matchbox Blues
TTITLE2=So High
TTITLE3=I Got Loaded
TTITLE4=Laundromat Blues
TTITLE5=Down In The Swamp
TTITLE6=The Killing Floor
TTITLE7=Cherry Tree Blues
TTITLE8=Too Many Dirty Dishes
EXTD=
EXTT0=
EXTT1=
EXTT2=
EXTT3=
EXTT4=
EXTT5=
EXTT6=
EXTT7=
EXTT8=
PLAYORDER=
